<svg xmlns="http://www.w3.org/2000/svg" viewBox="0 0 24 16" fill="none" stroke="currentColor" stroke-width="1.8" stroke-linecap="square" stroke-linejoin="round">
<!-- DIMM outline: flat edge contacts, off-centre key notch, unequal banks. -->
<path d="M1 1h22v3h-1.5v2H23v4h-2v4h-9.5v-3H8v3H3v-4H1V6h1.5V4H1Z"/>
<rect x="4.5" y="3.5" width="3.5" height="4.5" rx=".3"/>
<rect x="10.25" y="3.5" width="3.5" height="4.5" rx=".3"/>
<rect x="16" y="3.5" width="3.5" height="4.5" rx=".3"/>
<g fill="currentColor" stroke="none">
<rect x="3.7" y="10.5" width="1.3" height="3.5"/>
<rect x="6" y="10.5" width="1.3" height="3.5"/>
<rect x="12.4" y="10.5" width="1.2" height="3.5"/>
<rect x="15" y="10.5" width=".9" height="3.5"/>
<rect x="17.1" y="10.5" width=".9" height="3.5"/>
<rect x="19" y="10.5" width="1.1" height="3.5"/>
</g></svg>
