<svg xmlns="http://www.w3.org/2000/svg" width="960" height="540" viewBox="0 0 960 540">
  <rect width="960" height="540" fill="#000000"/>
  <g font-family="monospace">
    <path d="M48 38h11l-8 15h9L43 76l6-17h-9z" fill="#ff6a00"/>
    <text x="76" y="61" fill="#ffffff" font-size="23" font-weight="700">WIREVIEW</text>
    <text x="205" y="61" fill="#ff6a00" font-size="14" font-weight="700">PRO II</text>
    <circle cx="832" cy="53" r="5" fill="#ff6a00"/>
    <text x="847" y="58" fill="#ff6a00" font-size="12" font-weight="700">LIVE</text>

    <line x1="40" y1="91" x2="920" y2="91" stroke="#242424"/>
    <text x="48" y="124" fill="#ffffff" font-size="12" font-weight="700">OVERVIEW</text>
    <text x="148" y="124" fill="#6f6f6f" font-size="12">PINS</text>
    <text x="214" y="124" fill="#6f6f6f" font-size="12">FAULTS</text>
    <text x="296" y="124" fill="#6f6f6f" font-size="12">CONFIGURE</text>
    <rect x="47" y="137" width="65" height="2" fill="#ff6a00"/>
    <line x1="40" y1="148" x2="920" y2="148" stroke="#242424"/>

    <g font-size="11">
      <text x="50" y="181" fill="#ff6a00">P1</text><text x="83" y="181" fill="#fff" font-size="19" font-weight="700">69.9 W</text><text x="202" y="181" fill="#a8a8a8">5.79 A</text>
      <rect x="50" y="194" width="205" height="2" fill="#151515"/><rect x="50" y="194" width="143" height="2" fill="#ff6a00"/>
      <text x="50" y="230" fill="#ff6a00">P2</text><text x="83" y="230" fill="#fff" font-size="19" font-weight="700">70.4 W</text><text x="202" y="230" fill="#a8a8a8">5.83 A</text>
      <rect x="50" y="243" width="205" height="2" fill="#151515"/><rect x="50" y="243" width="144" height="2" fill="#ff6a00"/>
      <text x="50" y="279" fill="#ff6a00">P3</text><text x="83" y="279" fill="#fff" font-size="19" font-weight="700">71.0 W</text><text x="202" y="279" fill="#a8a8a8">5.88 A</text>
      <rect x="50" y="292" width="205" height="2" fill="#151515"/><rect x="50" y="292" width="145" height="2" fill="#ff6a00"/>
      <text x="50" y="328" fill="#ff6a00">P4</text><text x="83" y="328" fill="#fff" font-size="19" font-weight="700">71.4 W</text><text x="202" y="328" fill="#a8a8a8">5.91 A</text>
      <rect x="50" y="341" width="205" height="2" fill="#151515"/><rect x="50" y="341" width="146" height="2" fill="#ff6a00"/>
      <text x="50" y="377" fill="#ff6a00">P5</text><text x="83" y="377" fill="#fff" font-size="19" font-weight="700">72.2 W</text><text x="202" y="377" fill="#a8a8a8">5.98 A</text>
      <rect x="50" y="390" width="205" height="2" fill="#151515"/><rect x="50" y="390" width="148" height="2" fill="#ff6a00"/>
      <text x="50" y="426" fill="#ff6a00">P6</text><text x="83" y="426" fill="#fff" font-size="19" font-weight="700">72.9 W</text><text x="202" y="426" fill="#a8a8a8">6.04 A</text>
      <rect x="50" y="439" width="205" height="2" fill="#151515"/><rect x="50" y="439" width="149" height="2" fill="#ff6a00"/>
    </g>

    <line x1="286" y1="166" x2="286" y2="452" stroke="#242424"/>
    <text x="322" y="186" fill="#6f6f6f" font-size="11" font-weight="700">POWER FLOW</text>
    <text x="322" y="230" fill="#ffffff" font-size="42" font-weight="700">428.1</text>
    <text x="486" y="230" fill="#ff6a00" font-size="15" font-weight="700">W</text>
    <text x="838" y="186" fill="#6f6f6f" font-size="11">CABLE</text>
    <text x="838" y="207" fill="#a8a8a8" font-size="14">600 W</text>

    <g stroke="#1a1a1a" stroke-width="1">
      <line x1="322" y1="270" x2="882" y2="270"/><line x1="322" y1="320" x2="882" y2="320"/>
      <line x1="322" y1="370" x2="882" y2="370"/><line x1="322" y1="420" x2="882" y2="420"/>
    </g>
    <path d="M322 398 C360 392 373 350 410 361 S468 388 503 342 S564 296 603 315 S665 368 702 330 S763 275 804 295 S846 254 882 267 L882 430 L322 430 Z" fill="#ff6a00" opacity=".08"/>
    <path d="M322 398 C360 392 373 350 410 361 S468 388 503 342 S564 296 603 315 S665 368 702 330 S763 275 804 295 S846 254 882 267" fill="none" stroke="#ff6a00" stroke-width="3"/>
    <text x="322" y="451" fill="#6f6f6f" font-size="10">2 MINUTES</text>
    <text x="812" y="451" fill="#ff6a00" font-size="10" font-weight="700">71.4% LOAD</text>

    <line x1="40" y1="474" x2="920" y2="474" stroke="#242424"/>
    <g font-size="10" fill="#6f6f6f">
      <text x="50" y="501">VOLTAGE</text><text x="223" y="501">CURRENT</text><text x="396" y="501">INPUT TEMP</text><text x="569" y="501">OUTPUT TEMP</text><text x="742" y="501">FAN</text>
    </g>
    <g font-size="18" fill="#ffffff" font-weight="700">
      <text x="50" y="525">12.08 V</text><text x="223" y="525">35.43 A</text><text x="396" y="525">46.2 C</text><text x="569" y="525">39.8 C</text><text x="742" y="525">40 %</text>
    </g>
  </g>
</svg>
